<?xml version="1.0" encoding="UTF-8" standalone="no"?>
<!-- Created with Inkscape (http://www.inkscape.org/) -->

<svg
   xmlns:dc="http://purl.org/dc/elements/1.1/"
   xmlns:cc="http://creativecommons.org/ns#"
   xmlns:rdf="http://www.w3.org/1999/02/22-rdf-syntax-ns#"
   xmlns:svg="http://www.w3.org/2000/svg"
   xmlns="http://www.w3.org/2000/svg"
   xmlns:sodipodi="http://sodipodi.sourceforge.net/DTD/sodipodi-0.dtd"
   xmlns:inkscape="http://www.inkscape.org/namespaces/inkscape"
   width="32"
   height="32"
   viewBox="0 0 8.4666667 8.4666667"
   version="1.1"
   id="svg8"
   inkscape:version="0.92.1 r15371"
   sodipodi:docname="desktop-profiler.svg"
   inkscape:export-filename="/home/john/Nextcloud/Q4OS Stuff/desktop-profiler.png"
   inkscape:export-xdpi="96"
   inkscape:export-ydpi="96">
  <defs
     id="defs2">
    <style
       id="current-color-scheme"
       type="text/css">
   .ColorScheme-Text { color:#5c616c; } .ColorScheme-Highlight { color:#5294e2; } .ColorScheme-ButtonBackground { color:#d3dae3; }
  </style>
  </defs>
  <sodipodi:namedview
     id="base"
     pagecolor="#ffffff"
     bordercolor="#666666"
     borderopacity="1.0"
     inkscape:pageopacity="0.0"
     inkscape:pageshadow="2"
     inkscape:zoom="7.9844143"
     inkscape:cx="14.315582"
     inkscape:cy="22.406663"
     inkscape:document-units="mm"
     inkscape:current-layer="layer1"
     showgrid="false"
     units="px"
     inkscape:window-width="1366"
     inkscape:window-height="703"
     inkscape:window-x="-3"
     inkscape:window-y="-4"
     inkscape:window-maximized="1"
     fit-margin-top="0"
     fit-margin-left="0"
     fit-margin-right="0"
     fit-margin-bottom="0" />
  <metadata
     id="metadata5">
    <rdf:RDF>
      <cc:Work
         rdf:about="">
        <dc:format>image/svg+xml</dc:format>
        <dc:type
           rdf:resource="http://purl.org/dc/dcmitype/StillImage" />
        <dc:title></dc:title>
      </cc:Work>
    </rdf:RDF>
  </metadata>
  <g
     inkscape:label="Layer 1"
     inkscape:groupmode="layer"
     id="layer1"
     transform="translate(-9.5367434e-7,-288.53332)">
    <g
       id="g4525"
       transform="matrix(0.66666668,0,0,0.66666668,0,98.999993)">
      <g
         transform="matrix(0.85937513,0,0,0.85227286,0.21084027,46.093869)"
         id="g4929">
        <rect
           style="opacity:1;fill:#3689e6;fill-opacity:1;stroke:none;stroke-width:0.26656306;stroke-opacity:1"
           id="rect4909"
           width="12.7"
           height="11.641666"
           x="0.79374999"
           y="281.12497" />
        <rect
           style="opacity:1;fill:#fafafa;fill-opacity:1;stroke:none;stroke-width:0.25495091;stroke-opacity:1"
           id="rect4909-5"
           width="12.170834"
           height="11.1125"
           x="1.0583332"
           y="281.38956" />
        <rect
           style="opacity:1;fill:#3689e6;fill-opacity:1;stroke:none;stroke-width:0.2853117;stroke-opacity:1"
           id="rect4907"
           width="12.7"
           height="2.1166666"
           x="0.79374999"
           y="281.12497" />
      </g>
      <path
         inkscape:connector-curvature="0"
         style="color:#5c616c;opacity:1;fill:currentColor;stroke-width:0.49602506"
         class="ColorScheme-Text"
         d="m 5.4829305,287.97108 -0.076535,0.91454 a 2.7281378,2.7281378 0 0 0 -0.7973205,0.46115 l -0.8312303,-0.39139 -0.8680442,1.50358 0.7546958,0.52412 a 2.7281378,2.7281378 0 0 0 -0.041655,0.46017 2.7281378,2.7281378 0 0 0 0.039728,0.46213 l -0.752757,0.52217 0.8680441,1.50358 0.8292916,-0.39043 a 2.7281378,2.7281378 0 0 0 0.7992585,0.45824 l 0.074595,0.91746 h 1.7360873 l 0.076535,-0.91456 a 2.7281378,2.7281378 0 0 0 0.7973213,-0.46114 l 0.8312303,0.39141 0.8680433,-1.50359 -0.7546943,-0.52411 a 2.7281378,2.7281378 0 0 0 0.041663,-0.46018 2.7281378,2.7281378 0 0 0 -0.03972,-0.46212 l 0.7527563,-0.5222 -0.8680433,-1.50355 -0.8292923,0.39041 a 2.7281378,2.7281378 0 0 0 -0.7992593,-0.45824 l -0.074595,-0.91745 z m 0.868044,2.48012 a 0.99205014,0.99205014 0 0 1 0.9920499,0.99205 0.99205014,0.99205014 0 0 1 -0.9920499,0.99206 0.99205014,0.99205014 0 0 1 -0.9920505,-0.99206 0.99205014,0.99205014 0 0 1 0.9920505,-0.99205 z"
         id="path5242" />
    </g>
  </g>
</svg>
