<?xml version="1.0" encoding="UTF-8" standalone="no"?>
<!-- Created with Inkscape (http://www.inkscape.org/) -->

<svg
   xmlns:dc="http://purl.org/dc/elements/1.1/"
   xmlns:cc="http://creativecommons.org/ns#"
   xmlns:rdf="http://www.w3.org/1999/02/22-rdf-syntax-ns#"
   xmlns:svg="http://www.w3.org/2000/svg"
   xmlns="http://www.w3.org/2000/svg"
   xmlns:sodipodi="http://sodipodi.sourceforge.net/DTD/sodipodi-0.dtd"
   xmlns:inkscape="http://www.inkscape.org/namespaces/inkscape"
   width="32"
   height="32"
   viewBox="0 0 8.4666667 8.4666667"
   version="1.1"
   id="svg8"
   inkscape:version="0.92.1 r15371"
   sodipodi:docname="login-manager.svg"
   inkscape:export-filename="/home/john/Nextcloud/Q4OS Stuff/icons/Paper-Q4OS/16x16/software-store.png"
   inkscape:export-xdpi="24"
   inkscape:export-ydpi="24">
  <defs
     id="defs2">
    <filter
       inkscape:collect="always"
       style="color-interpolation-filters:sRGB"
       id="filter5431"
       x="-0.012"
       width="1.024"
       y="-0.012"
       height="1.024">
      <feGaussianBlur
         inkscape:collect="always"
         stdDeviation="0.030427085"
         id="feGaussianBlur5433" />
    </filter>
    <filter
       inkscape:collect="always"
       style="color-interpolation-filters:sRGB"
       id="filter5479"
       x="-0.012"
       width="1.024"
       y="-0.012"
       height="1.024">
      <feGaussianBlur
         inkscape:collect="always"
         stdDeviation="0.030427085"
         id="feGaussianBlur5481" />
    </filter>
  </defs>
  <sodipodi:namedview
     id="base"
     pagecolor="#ffffff"
     bordercolor="#666666"
     borderopacity="1.0"
     inkscape:pageopacity="0.0"
     inkscape:pageshadow="2"
     inkscape:zoom="16.9375"
     inkscape:cx="15.988858"
     inkscape:cy="15.990437"
     inkscape:document-units="mm"
     inkscape:current-layer="layer1"
     showgrid="false"
     units="px"
     inkscape:window-width="1366"
     inkscape:window-height="703"
     inkscape:window-x="-3"
     inkscape:window-y="-4"
     inkscape:window-maximized="1"
     fit-margin-top="0"
     fit-margin-left="0"
     fit-margin-right="0"
     fit-margin-bottom="0" />
  <metadata
     id="metadata5">
    <rdf:RDF>
      <cc:Work
         rdf:about="">
        <dc:format>image/svg+xml</dc:format>
        <dc:type
           rdf:resource="http://purl.org/dc/dcmitype/StillImage" />
        <dc:title></dc:title>
      </cc:Work>
    </rdf:RDF>
  </metadata>
  <g
     inkscape:label="Layer 1"
     inkscape:groupmode="layer"
     id="layer1"
     transform="translate(-5.4041545e-7,-288.53332)">
    <path
       style="fill:#68b723;stroke:none;stroke-width:0.04084671px;stroke-linecap:butt;stroke-linejoin:miter;stroke-opacity:1"
       d="m 3.3768311,294.38058 c 0.2928542,0.58942 1.1315346,0.63655 1.9732984,0.635 0.8417631,-0.002 1.6866102,-0.0518 1.9917972,-0.635 0.508819,-0.97232 -2.0733077,-3.33372 -2.0733077,-3.33372 0,0 -2.3952322,2.32046 -1.8917879,3.33372 z"
       id="path5217-7"
       inkscape:connector-curvature="0"
       sodipodi:nodetypes="ssscs" />
    <ellipse
       style="opacity:0.2;fill:#000000;fill-opacity:1;stroke:none;stroke-width:0.09236769;stroke-opacity:0;filter:url(#filter5479)"
       id="path5219-3-3"
       cx="10.186459"
       cy="285.4906"
       rx="3.0427084"
       ry="3.0427086"
       transform="matrix(0.50000004,0,0,0.50000004,0.26458361,148.2354)" />
    <ellipse
       style="opacity:1;fill:#68b723;fill-opacity:1;stroke:none;stroke-width:0.04618385;stroke-opacity:0"
       id="path5219-3"
       cx="5.3578134"
       cy="290.84842"
       rx="1.5213543"
       ry="1.5213544" />
    <path
       inkscape:connector-curvature="0"
       style="opacity:0.2;fill:#ffffff;stroke-width:0.05433388"
       d="m 5.3578175,289.32706 a 1.5213486,1.5213486 0 0 0 -1.5213486,1.52135 1.5213486,1.5213486 0 0 0 0.00115,0.0319 1.5213486,1.5213486 0 0 1 1.5201806,-1.49885 1.5213486,1.5213486 0 0 1 1.5202076,1.48951 1.5213486,1.5213486 0 0 0 0.00115,-0.0225 1.5213486,1.5213486 0 0 0 -1.5213486,-1.52135 z"
       id="path5512-1" />
    <path
       style="fill:#3689e6;stroke:none;stroke-width:0.04084671px;stroke-linecap:butt;stroke-linejoin:miter;stroke-opacity:1"
       d="m 0.99558087,295.7035 c 0.29285423,0.58942 1.13153473,0.63655 1.97329843,0.63499 0.8417633,-10e-4 1.6866103,-0.0518 1.991797,-0.63499 0.5088192,-0.97232 -2.0733073,-3.33372 -2.0733073,-3.33372 0,0 -2.39523241,2.32045 -1.89178813,3.33372 z"
       id="path5217"
       inkscape:connector-curvature="0"
       sodipodi:nodetypes="ssscs" />
    <ellipse
       style="opacity:0.2;fill:#000000;fill-opacity:1;stroke:none;stroke-width:0.09236769;stroke-opacity:0;filter:url(#filter5431)"
       id="path5219-5"
       cx="5.4239583"
       cy="288.13644"
       rx="3.0427084"
       ry="3.0427086"
       transform="matrix(0.50000004,0,0,0.50000004,0.26458361,148.2354)" />
    <ellipse
       style="opacity:1;fill:#3689e6;fill-opacity:1;stroke:none;stroke-width:0.04618385;stroke-opacity:0"
       id="path5219"
       cx="2.976563"
       cy="292.17133"
       rx="1.5213543"
       ry="1.5213544" />
    <path
       inkscape:connector-curvature="0"
       style="opacity:0.2;fill:#ffffff;stroke-width:0.05433388"
       d="m 2.9765673,290.64999 a 1.5213486,1.5213486 0 0 0 -1.5213486,1.52135 1.5213486,1.5213486 0 0 0 0.00115,0.0319 1.5213486,1.5213486 0 0 1 1.5201806,-1.49885 1.5213486,1.5213486 0 0 1 1.5202076,1.4895 1.5213486,1.5213486 0 0 0 0.00115,-0.0225 1.5213486,1.5213486 0 0 0 -1.5213486,-1.52135 z"
       id="path5512" />
  </g>
</svg>
