<?xml version="1.0" encoding="UTF-8" standalone="no"?>
<!-- Created with Inkscape (http://www.inkscape.org/) -->

<svg
   xmlns:dc="http://purl.org/dc/elements/1.1/"
   xmlns:cc="http://creativecommons.org/ns#"
   xmlns:rdf="http://www.w3.org/1999/02/22-rdf-syntax-ns#"
   xmlns:svg="http://www.w3.org/2000/svg"
   xmlns="http://www.w3.org/2000/svg"
   xmlns:sodipodi="http://sodipodi.sourceforge.net/DTD/sodipodi-0.dtd"
   xmlns:inkscape="http://www.inkscape.org/namespaces/inkscape"
   width="32"
   height="32"
   viewBox="0 0 8.4666667 8.4666667"
   version="1.1"
   id="svg8"
   inkscape:version="0.92.1 r15371"
   sodipodi:docname="tdmconfig.svg"
   inkscape:export-filename="/home/john/Github/gui-art/icons_debonaire/drafts/jb/system-users.png"
   inkscape:export-xdpi="144"
   inkscape:export-ydpi="144">
  <defs
     id="defs2" />
  <sodipodi:namedview
     id="base"
     pagecolor="#ffffff"
     bordercolor="#666666"
     borderopacity="1.0"
     inkscape:pageopacity="0.0"
     inkscape:pageshadow="2"
     inkscape:zoom="16.6875"
     inkscape:cx="16"
     inkscape:cy="16"
     inkscape:document-units="mm"
     inkscape:current-layer="layer1"
     showgrid="false"
     units="px"
     inkscape:window-width="1362"
     inkscape:window-height="695"
     inkscape:window-x="0"
     inkscape:window-y="0"
     inkscape:window-maximized="1"
     fit-margin-top="0"
     fit-margin-left="0"
     fit-margin-right="0"
     fit-margin-bottom="0" />
  <metadata
     id="metadata5">
    <rdf:RDF>
      <cc:Work
         rdf:about="">
        <dc:format>image/svg+xml</dc:format>
        <dc:type
           rdf:resource="http://purl.org/dc/dcmitype/StillImage" />
        <dc:title></dc:title>
      </cc:Work>
    </rdf:RDF>
  </metadata>
  <g
     inkscape:label="Layer 1"
     inkscape:groupmode="layer"
     id="layer1"
     transform="translate(-4.4504802e-7,-288.53332)">
    <path
       inkscape:connector-curvature="0"
       style="fill:#a56de2;stroke:none;stroke-width:0.05699505px;stroke-linecap:butt;stroke-linejoin:miter;stroke-opacity:1"
       d="m 4.2333754,288.7979 a 2.1228066,2.1228067 0 0 0 -2.1228063,2.12281 2.1228066,2.1228067 0 0 0 0.7650467,1.6314 c -0.8695227,1.05824 -1.8121531,2.48084 -1.4064312,3.29742 0.4086312,0.82244 1.5788284,0.88799 2.7533748,0.88582 1.1745461,-0.002 2.3534942,-0.0721 2.7793332,-0.88582 0.4026176,-0.76937 -0.58144,-2.16115 -1.5091825,-3.22279 a 2.1228066,2.1228067 0 0 0 0.8634715,-1.70603 2.1228066,2.1228067 0 0 0 -2.1228062,-2.12281 z"
       id="path5217-2" />
    <path
       inkscape:connector-curvature="0"
       style="opacity:0.2;fill:#ffffff;stroke-width:0.07581425"
       d="m 4.2333813,288.79802 a 2.1227984,2.1227984 0 0 0 -2.1227984,2.1228 2.1227984,2.1227984 0 0 0 0.00161,0.0444 2.1227984,2.1227984 0 0 1 2.1211687,-2.0914 2.1227984,2.1227984 0 0 1 2.121207,2.07836 2.1227984,2.1227984 0 0 0 0.0016,-0.0314 2.1227984,2.1227984 0 0 0 -2.1227989,-2.1228 z"
       id="path5512-7" />
  </g>
</svg>
