<?xml version="1.0" encoding="UTF-8" standalone="no"?>
<!-- Created with Inkscape (http://www.inkscape.org/) -->

<svg
   xmlns:dc="http://purl.org/dc/elements/1.1/"
   xmlns:cc="http://creativecommons.org/ns#"
   xmlns:rdf="http://www.w3.org/1999/02/22-rdf-syntax-ns#"
   xmlns:svg="http://www.w3.org/2000/svg"
   xmlns="http://www.w3.org/2000/svg"
   xmlns:sodipodi="http://sodipodi.sourceforge.net/DTD/sodipodi-0.dtd"
   xmlns:inkscape="http://www.inkscape.org/namespaces/inkscape"
   id="svg7384"
   style="enable-background:new"
   height="16.01"
   width="16"
   version="1.1"
   sodipodi:docname="folder-temp-symbolic.svg"
   inkscape:version="0.92.1 r15371">
  <sodipodi:namedview
     pagecolor="#ffffff"
     bordercolor="#666666"
     borderopacity="1"
     objecttolerance="10"
     gridtolerance="10"
     guidetolerance="10"
     inkscape:pageopacity="0"
     inkscape:pageshadow="2"
     inkscape:window-width="1366"
     inkscape:window-height="703"
     id="namedview10"
     showgrid="false"
     inkscape:zoom="14.740787"
     inkscape:cx="-3.2951908"
     inkscape:cy="7.3605298"
     inkscape:window-x="-3"
     inkscape:window-y="-4"
     inkscape:window-maximized="1"
     inkscape:current-layer="svg7384" />
  <metadata
     id="metadata90">
    <rdf:RDF>
      <cc:Work
         rdf:about="">
        <dc:format>image/svg+xml</dc:format>
        <dc:type
           rdf:resource="http://purl.org/dc/dcmitype/StillImage" />
        <dc:title>Paper Symbolic Icon Theme</dc:title>
      </cc:Work>
    </rdf:RDF>
  </metadata>
  <title
     id="title8473">Paper Symbolic Icon Theme</title>
  <defs
     id="defs7386">
    <filter
       id="filter7554"
       color-interpolation-filters="sRGB">
      <feBlend
         id="feBlend7556"
         in2="BackgroundImage"
         mode="darken" />
    </filter>
  </defs>
  <path
     inkscape:connector-curvature="0"
     style="opacity:1;fill:#555555;fill-opacity:1;stroke-width:0.99999994"
     d="m 3.0047778,1.01 c -0.554003,0 -0.999987,0.4459842 -0.999987,0.9999874 v 8.9999996 h 0.999987 V 10.01 h 1.000025 V 3.0099748 h 4.999975 v 3.0000001 h 3.0000002 v 8.0000131 0.999987 h 1.000026 v -0.999987 h 0.999987 V 5.0099874 L 10.004803,1.01 Z M 13.004804,15.009975 V 16.01 h 0.999987 v -1.000025 z m -1.000026,0 H 11.004791 V 16.01 h 0.999987 z m -0.999987,0 v -0.999987 h -0.999988 v 0.999987 z m -0.999988,0 H 9.0047778 V 16.01 h 1.0000252 z m -1.0000252,0 v -0.999987 h -0.999987 v 0.999987 z m -0.999987,0 H 7.0048028 V 16.01 h 0.999988 z m -0.999988,0 v -0.999987 h -1.000025 v 0.999987 z m -1.000025,0 H 5.0047908 V 16.01 h 0.999987 z m -0.999987,0 v -0.999987 h -0.999988 v 0.999987 z m -0.999988,0 H 3.0047778 V 16.01 h 1.000025 z m -1.000025,0 v -0.999987 h -0.999987 v 0.999987 z m 0,-0.999987 h 1.000025 V 13.01 h -1.000025 z m 0,-0.999988 V 12.009975 H 2.0047908 V 13.01 Z m 0,-1.000025 h 1.000025 v -0.999988 h -1.000025 z"
     id="path4528" />
</svg>
