<?xml version="1.0" encoding="UTF-8" standalone="no"?>
<!-- Created with Inkscape (http://www.inkscape.org/) -->

<svg
   xmlns:dc="http://purl.org/dc/elements/1.1/"
   xmlns:cc="http://creativecommons.org/ns#"
   xmlns:rdf="http://www.w3.org/1999/02/22-rdf-syntax-ns#"
   xmlns:svg="http://www.w3.org/2000/svg"
   xmlns="http://www.w3.org/2000/svg"
   xmlns:sodipodi="http://sodipodi.sourceforge.net/DTD/sodipodi-0.dtd"
   xmlns:inkscape="http://www.inkscape.org/namespaces/inkscape"
   version="1.1"
   id="svg2"
   width="16"
   height="16"
   viewBox="0 0 16 16"
   sodipodi:docname="tdenetworkmanager.svg"
   inkscape:version="0.92.1 r15371"
   inkscape:export-filename="/home/john/Nextcloud/Q4OS Stuff/tdevelop.png"
   inkscape:export-xdpi="96"
   inkscape:export-ydpi="96">
  <metadata
     id="metadata8">
    <rdf:RDF>
      <cc:Work
         rdf:about="">
        <dc:format>image/svg+xml</dc:format>
        <dc:type
           rdf:resource="http://purl.org/dc/dcmitype/StillImage" />
        <dc:title></dc:title>
      </cc:Work>
    </rdf:RDF>
  </metadata>
  <defs
     id="defs6" />
  <sodipodi:namedview
     pagecolor="#ffffff"
     bordercolor="#666666"
     borderopacity="1"
     objecttolerance="10"
     gridtolerance="10"
     guidetolerance="10"
     inkscape:pageopacity="0"
     inkscape:pageshadow="2"
     inkscape:window-width="1366"
     inkscape:window-height="703"
     id="namedview4"
     showgrid="false"
     fit-margin-top="0"
     fit-margin-left="0"
     fit-margin-right="0"
     fit-margin-bottom="0"
     showguides="true"
     inkscape:zoom="11.976621"
     inkscape:cx="22.083243"
     inkscape:cy="10.018861"
     inkscape:window-x="-3"
     inkscape:window-y="-4"
     inkscape:window-maximized="1"
     inkscape:current-layer="svg2"
     inkscape:snap-grids="true" />
  <ellipse
     style="opacity:1;fill:#3a9104;fill-opacity:1;stroke-width:0.33536586"
     id="path5219-3"
     cx="8"
     cy="8.0000057"
     rx="6.875"
     ry="6.8750005" />
  <path
     inkscape:connector-curvature="0"
     style="opacity:1;fill:#fafafa;stroke-width:0.67193371"
     class="ColorScheme-Text"
     d="m 8.0787474,2.625557 a 5.3758116,5.3751268 0 0 0 -3.8796146,1.5747448 5.3758116,5.3751268 0 0 0 0,7.6007652 5.3758116,5.3751268 0 0 0 7.6017342,0 5.3758116,5.3751268 0 0 0 0,-7.6007652 A 5.3758116,5.3751268 0 0 0 8.0787474,2.625557 Z M 7.9317527,3.297448 A 4.7038356,4.7032366 0 0 1 11.076392,4.449636 L 10.132739,5.3931703 A 5.3754693,3.3596683 44.991678 0 0 6.488053,3.5507193 4.7038356,4.7032366 0 0 1 7.9317527,3.297448 Z M 5.897449,4.1753683 A 4.7035358,2.6877345 44.992816 0 1 9.6563174,5.8695298 L 8,7.525636 4.9419825,4.4680083 a 4.7035358,2.6877345 44.992816 0 1 0.9554665,-0.29264 z m 5.657989,0.7453787 a 4.7038356,4.7032366 0 0 1 0.897719,4.5759444 5.3754693,3.3596683 44.991678 0 0 -1.847935,-3.6258489 z m -7.089876,0.021 3.05933,3.058941 -1.6576295,1.657418 A 4.7035358,2.6877345 44.992816 0 1 4.465562,4.9417446 Z m 5.667177,1.4015213 a 4.7035358,2.6877345 44.992816 0 1 1.4017,4.7163587 L 8.4751087,8.0006874 Z M 3.5468438,6.5046803 A 5.3754693,3.3596683 44.991678 0 0 5.3947793,10.130529 L 4.4445628,11.080624 A 4.7038356,4.7032366 0 0 1 3.5468438,6.5046803 Z M 8,8.4757347 11.058019,11.533363 A 4.7035358,2.6877345 44.992816 0 1 6.3436838,10.13184 Z M 5.8672625,10.608201 a 5.3754693,3.3596683 44.991678 0 0 3.6446855,1.842451 4.7038356,4.7032366 0 0 1 -4.58834,-0.898917 z"
     id="path5" />
</svg>
