<?xml version="1.0" encoding="UTF-8" standalone="no"?>
<!-- Generator: Adobe Illustrator 21.1.0, SVG Export Plug-In . SVG Version: 6.00 Build 0)  -->

<svg
   xmlns:dc="http://purl.org/dc/elements/1.1/"
   xmlns:cc="http://creativecommons.org/ns#"
   xmlns:rdf="http://www.w3.org/1999/02/22-rdf-syntax-ns#"
   xmlns:svg="http://www.w3.org/2000/svg"
   xmlns="http://www.w3.org/2000/svg"
   xmlns:sodipodi="http://sodipodi.sourceforge.net/DTD/sodipodi-0.dtd"
   xmlns:inkscape="http://www.inkscape.org/namespaces/inkscape"
   version="1.1"
   id="Layer_1"
   x="0px"
   y="0px"
   viewBox="0 0 661.9 871.1"
   style="enable-background:new 0 0 661.9 871.1;"
   xml:space="preserve"
   sodipodi:docname="q4os-logo-fullcolor.svg"
   inkscape:version="0.92.1 r15371"><metadata
     id="metadata41"><rdf:RDF><cc:Work
         rdf:about=""><dc:format>image/svg+xml</dc:format><dc:type
           rdf:resource="http://purl.org/dc/dcmitype/StillImage" /></cc:Work></rdf:RDF></metadata><defs
     id="defs39" /><sodipodi:namedview
     pagecolor="#ffffff"
     bordercolor="#666666"
     borderopacity="1"
     objecttolerance="10"
     gridtolerance="10"
     guidetolerance="10"
     inkscape:pageopacity="0"
     inkscape:pageshadow="2"
     inkscape:window-width="1362"
     inkscape:window-height="695"
     id="namedview37"
     showgrid="false"
     inkscape:zoom="0.27092183"
     inkscape:cx="-305.76501"
     inkscape:cy="400.48452"
     inkscape:window-x="0"
     inkscape:window-y="0"
     inkscape:window-maximized="1"
     inkscape:current-layer="Layer_1" /><style
     type="text/css"
     id="style2">
	.st0{display:none;}
	.st1{display:inline;}
	.st2{fill:#303F9F;}
	.st3{fill:#3F51B5;}
	.st4{fill:#448AFF;}
	.st5{fill:#FF5722;}
</style><g
     id="g4547"><path
       style="fill:#303f9f"
       inkscape:connector-curvature="0"
       id="path8"
       d="M 229.2,357.4 H 0 C 12.8,519.7 142.3,649.2 304.6,662 V 430.7 c -36.4,-9.2 -65.2,-37.3 -75.4,-73.3 z"
       class="st2" /><path
       style="fill:#3f51b5"
       inkscape:connector-curvature="0"
       id="path12"
       d="M 304.6,226.9 V 0 C 142.8,12.8 13.6,141.5 0.1,303.1 h 228.3 c 9.4,-37.4 38.8,-66.8 76.2,-76.2 z"
       class="st3" /><path
       style="fill:#448aff"
       inkscape:connector-curvature="0"
       id="path16"
       d="M 432.1,303.1 H 661.8 C 648.5,142 520,13.5 358.9,0.1 v 227.6 c 36,10.2 64.1,39 73.2,75.4 z"
       class="st4" /><g
       id="g24"><rect
         id="rect22"
         height="260.1"
         width="142.5"
         class="st5"
         transform="matrix(0.7071 -0.7071 0.7071 0.7071 -201.4142 494.5681)"
         y="360.4"
         x="425" /></g></g><g
     id="g34"><path
       class="st5"
       d="M187.4,765.4c0-20.6,10.8-32.4,30.7-32.4c19.9,0,30.7,11.8,30.7,32.4v66.9c0,7.2-1.3,13.2-3.9,18   c0.9,2.4,2.4,2.8,5.7,2.8h1.8v18h-2.8c-9,0-14.7-3.3-17.5-8.8c-4,1.5-8.8,2.4-14.2,2.4c-19.9,0-30.7-11.8-30.7-32.4V765.4z    M207.6,833.6c0,9.2,4,12.7,10.5,12.7c6.4,0,10.5-3.5,10.5-12.7v-69.5c0-9.2-4-12.7-10.5-12.7c-6.4,0-10.5,3.5-10.5,12.7V833.6z"
       id="path26" /><path
       class="st5"
       d="M260.8,821.4l36.8-87h22.1v87h9.6v18.4h-9.6v23.3h-19.9v-23.3h-39V821.4z M299.7,821.4v-48.4l-20.4,48.4H299.7   z"
       id="path28" /><path
       class="st2"
       d="M340.4,765.4c0-20.6,10.8-32.4,30.7-32.4c19.9,0,30.7,11.8,30.7,32.4v66.9c0,20.6-10.8,32.4-30.7,32.4   c-19.9,0-30.7-11.8-30.7-32.4V765.4z M360.6,833.6c0,9.2,4,12.7,10.5,12.7c6.4,0,10.5-3.5,10.5-12.7v-69.5c0-9.2-4-12.7-10.5-12.7   c-6.4,0-10.5,3.5-10.5,12.7V833.6z"
       id="path30" /><path
       class="st2"
       d="M445.7,733c19.7,0,29.8,11.8,29.8,32.4v4h-19.1v-5.3c0-9.2-3.7-12.7-10.1-12.7c-6.4,0-10.1,3.5-10.1,12.7   c0,26.5,39.5,31.4,39.5,68.2c0,20.6-10.3,32.4-30.2,32.4c-19.9,0-30.2-11.8-30.2-32.4v-7.9h19.1v9.2c0,9.2,4,12.5,10.5,12.5   s10.5-3.3,10.5-12.5c0-26.5-39.5-31.4-39.5-68.2C415.9,744.8,426,733,445.7,733z"
       id="path32" /></g></svg>