<?xml version="1.0" encoding="UTF-8" standalone="no"?>
<!-- Created with Inkscape (http://www.inkscape.org/) -->

<svg
   xmlns:dc="http://purl.org/dc/elements/1.1/"
   xmlns:cc="http://creativecommons.org/ns#"
   xmlns:rdf="http://www.w3.org/1999/02/22-rdf-syntax-ns#"
   xmlns:svg="http://www.w3.org/2000/svg"
   xmlns="http://www.w3.org/2000/svg"
   xmlns:sodipodi="http://sodipodi.sourceforge.net/DTD/sodipodi-0.dtd"
   xmlns:inkscape="http://www.inkscape.org/namespaces/inkscape"
   width="128"
   height="128"
   viewBox="0 0 33.866666 33.866668"
   version="1.1"
   id="svg8"
   inkscape:version="0.92.1 r15371"
   sodipodi:docname="tdmconfig.svg"
   inkscape:export-filename="/home/john/Github/gui-art/icons_debonaire/drafts/jb/system-users.png"
   inkscape:export-xdpi="144"
   inkscape:export-ydpi="144">
  <defs
     id="defs2">
    <filter
       inkscape:collect="always"
       style="color-interpolation-filters:sRGB"
       id="filter4559"
       x="-0.014322441"
       width="1.0286449"
       y="-0.010325654"
       height="1.0206513">
      <feGaussianBlur
         inkscape:collect="always"
         stdDeviation="0.068300627"
         id="feGaussianBlur4561" />
    </filter>
  </defs>
  <sodipodi:namedview
     id="base"
     pagecolor="#ffffff"
     bordercolor="#666666"
     borderopacity="1.0"
     inkscape:pageopacity="0.0"
     inkscape:pageshadow="2"
     inkscape:zoom="4.171875"
     inkscape:cx="64"
     inkscape:cy="64"
     inkscape:document-units="mm"
     inkscape:current-layer="layer1"
     showgrid="false"
     units="px"
     inkscape:window-width="1362"
     inkscape:window-height="695"
     inkscape:window-x="0"
     inkscape:window-y="0"
     inkscape:window-maximized="1"
     fit-margin-top="0"
     fit-margin-left="0"
     fit-margin-right="0"
     fit-margin-bottom="0" />
  <metadata
     id="metadata5">
    <rdf:RDF>
      <cc:Work
         rdf:about="">
        <dc:format>image/svg+xml</dc:format>
        <dc:type
           rdf:resource="http://purl.org/dc/dcmitype/StillImage" />
        <dc:title></dc:title>
      </cc:Work>
    </rdf:RDF>
  </metadata>
  <g
     inkscape:label="Layer 1"
     inkscape:groupmode="layer"
     id="layer1"
     transform="translate(-4.4504802e-7,-263.13332)">
    <path
       inkscape:connector-curvature="0"
       style="opacity:0.2;fill:#000000;stroke:none;stroke-width:0.11399128px;stroke-linecap:butt;stroke-linejoin:miter;stroke-opacity:1;filter:url(#filter4559)"
       d="m 8.4668101,280.86023 a 4.2456576,4.2456579 0 0 0 -4.2456567,4.24567 4.2456576,4.2456579 0 0 0 1.5301092,3.26283 c -1.7390634,2.1165 -3.6243442,4.96173 -2.8128917,6.59491 0.8172706,1.64489 3.1576893,1.776 5.506807,1.77166 2.3491171,-0.004 4.7070381,-0.14415 5.5587251,-1.77166 0.805243,-1.53876 -1.162893,-4.32235 -3.018397,-6.44565 a 4.2456576,4.2456579 0 0 0 1.726961,-3.41209 4.2456576,4.2456579 0 0 0 -4.2456569,-4.24567 z"
       id="path5217-2-7"
       transform="matrix(2.0000001,0,0,2.0000001,-4.4504806e-7,-297.00001)" />
    <path
       inkscape:connector-curvature="0"
       style="fill:#a56de2;stroke:none;stroke-width:0.22798018px;stroke-linecap:butt;stroke-linejoin:miter;stroke-opacity:1"
       d="m 16.9335,264.19164 a 8.4912262,8.4912268 0 0 0 -8.4912248,8.49124 8.4912262,8.4912268 0 0 0 3.0601868,6.5256 c -3.4780908,4.23296 -7.2486124,9.92336 -5.6257252,13.18968 1.6345251,3.28974 6.3153132,3.55196 11.0134992,3.54328 4.698185,-0.008 9.413977,-0.2883 11.117333,-3.54328 1.61047,-3.0775 -2.32576,-8.64462 -6.03673,-12.89116 a 8.4912262,8.4912268 0 0 0 3.453886,-6.82412 8.4912262,8.4912268 0 0 0 -8.491225,-8.49124 z"
       id="path5217-2" />
    <path
       inkscape:connector-curvature="0"
       style="opacity:0.2;fill:#ffffff;stroke-width:0.30325699"
       d="m 16.933524,264.19212 a 8.4911936,8.4911936 0 0 0 -8.4911936,8.4912 8.4911936,8.4911936 0 0 0 0.00642,0.1778 8.4911936,8.4911936 0 0 1 8.4846746,-8.36562 8.4911936,8.4911936 0 0 1 8.484828,8.31346 8.4911936,8.4911936 0 0 0 0.0064,-0.1256 8.4911936,8.4911936 0 0 0 -8.491196,-8.49122 z"
       id="path5512-7" />
  </g>
</svg>
