<?xml version="1.0" encoding="UTF-8" standalone="no"?>
<!-- Created with Inkscape (http://www.inkscape.org/) -->

<svg
   xmlns:dc="http://purl.org/dc/elements/1.1/"
   xmlns:cc="http://creativecommons.org/ns#"
   xmlns:rdf="http://www.w3.org/1999/02/22-rdf-syntax-ns#"
   xmlns:svg="http://www.w3.org/2000/svg"
   xmlns="http://www.w3.org/2000/svg"
   xmlns:sodipodi="http://sodipodi.sourceforge.net/DTD/sodipodi-0.dtd"
   xmlns:inkscape="http://www.inkscape.org/namespaces/inkscape"
   width="24"
   height="24"
   viewBox="0 0 6.35 6.35"
   version="1.1"
   id="svg8"
   inkscape:version="0.92.1 r15371"
   sodipodi:docname="desktop-profiler.svg"
   inkscape:export-filename="/home/john/Nextcloud/Q4OS Stuff/desktop-profiler.png"
   inkscape:export-xdpi="96"
   inkscape:export-ydpi="96">
  <defs
     id="defs2">
    <style
       id="current-color-scheme"
       type="text/css">
   .ColorScheme-Text { color:#5c616c; } .ColorScheme-Highlight { color:#5294e2; } .ColorScheme-ButtonBackground { color:#d3dae3; }
  </style>
  </defs>
  <sodipodi:namedview
     id="base"
     pagecolor="#ffffff"
     bordercolor="#666666"
     borderopacity="1.0"
     inkscape:pageopacity="0.0"
     inkscape:pageshadow="2"
     inkscape:zoom="8.46875"
     inkscape:cx="1.9983626"
     inkscape:cy="10.335022"
     inkscape:document-units="mm"
     inkscape:current-layer="layer1"
     showgrid="false"
     units="px"
     inkscape:window-width="1366"
     inkscape:window-height="703"
     inkscape:window-x="-3"
     inkscape:window-y="-4"
     inkscape:window-maximized="1"
     fit-margin-top="0"
     fit-margin-left="0"
     fit-margin-right="0"
     fit-margin-bottom="0" />
  <metadata
     id="metadata5">
    <rdf:RDF>
      <cc:Work
         rdf:about="">
        <dc:format>image/svg+xml</dc:format>
        <dc:type
           rdf:resource="http://purl.org/dc/dcmitype/StillImage" />
        <dc:title></dc:title>
      </cc:Work>
    </rdf:RDF>
  </metadata>
  <g
     inkscape:label="Layer 1"
     inkscape:groupmode="layer"
     id="layer1"
     transform="translate(-1.1682511e-6,-290.64999)">
    <g
       id="g4824"
       transform="matrix(1.1151513,0,0,1.1151513,-0.3656055,-33.834328)">
      <g
         transform="matrix(0.42968759,0,0,0.42613646,0.10542048,171.54692)"
         id="g4929">
        <rect
           style="opacity:1;fill:#3689e6;fill-opacity:1;stroke:none;stroke-width:0.26656306;stroke-opacity:1"
           id="rect4909"
           width="12.7"
           height="11.641666"
           x="0.79374999"
           y="281.12497" />
        <rect
           style="opacity:1;fill:#fafafa;fill-opacity:1;stroke:none;stroke-width:0.25495091;stroke-opacity:1"
           id="rect4909-5"
           width="12.170834"
           height="11.1125"
           x="1.0583332"
           y="281.38956" />
        <rect
           style="opacity:1;fill:#3689e6;fill-opacity:1;stroke:none;stroke-width:0.2853117;stroke-opacity:1"
           id="rect4907"
           width="12.7"
           height="2.1166666"
           x="0.79374999"
           y="281.12497" />
      </g>
      <path
         inkscape:connector-curvature="0"
         style="color:#5c616c;opacity:1;fill:currentColor;stroke-width:0.24801254"
         class="ColorScheme-Text"
         d="m 2.7414658,292.48554 -0.038267,0.45727 a 1.364069,1.364069 0 0 0 -0.3986603,0.23057 l -0.4156152,-0.19569 -0.4340221,0.75178 0.3773479,0.26207 a 1.364069,1.364069 0 0 0 -0.020827,0.23008 1.364069,1.364069 0 0 0 0.019864,0.23106 l -0.3763785,0.26109 0.434022,0.75179 0.4146458,-0.19521 a 1.364069,1.364069 0 0 0 0.3996293,0.22912 l 0.037298,0.45873 h 0.8680437 l 0.038267,-0.45729 a 1.364069,1.364069 0 0 0 0.398661,-0.23056 l 0.4156152,0.1957 0.4340216,-0.7518 -0.3773471,-0.26205 a 1.364069,1.364069 0 0 0 0.020831,-0.23009 1.364069,1.364069 0 0 0 -0.01986,-0.23106 l 0.3763782,-0.2611 -0.4340217,-0.75177 -0.4146461,0.1952 a 1.364069,1.364069 0 0 0 -0.3996298,-0.22912 l -0.037298,-0.45872 z m 0.434022,1.24006 a 0.4960251,0.4960251 0 0 1 0.496025,0.49602 0.4960251,0.4960251 0 0 1 -0.496025,0.49603 0.4960251,0.4960251 0 0 1 -0.4960253,-0.49603 0.4960251,0.4960251 0 0 1 0.4960253,-0.49602 z"
         id="path5242" />
    </g>
  </g>
</svg>
