<?xml version="1.0" encoding="UTF-8" standalone="no"?>
<!-- Created with Inkscape (http://www.inkscape.org/) -->

<svg
   xmlns:dc="http://purl.org/dc/elements/1.1/"
   xmlns:cc="http://creativecommons.org/ns#"
   xmlns:rdf="http://www.w3.org/1999/02/22-rdf-syntax-ns#"
   xmlns:svg="http://www.w3.org/2000/svg"
   xmlns="http://www.w3.org/2000/svg"
   xmlns:sodipodi="http://sodipodi.sourceforge.net/DTD/sodipodi-0.dtd"
   xmlns:inkscape="http://www.inkscape.org/namespaces/inkscape"
   width="48"
   height="48"
   viewBox="0 0 12.7 12.7"
   version="1.1"
   id="svg8"
   inkscape:version="0.92.1 r15371"
   sodipodi:docname="login-manager.svg"
   inkscape:export-filename="/home/john/Nextcloud/Q4OS Stuff/icons/Paper-Q4OS/16x16/software-store.png"
   inkscape:export-xdpi="24"
   inkscape:export-ydpi="24">
  <defs
     id="defs2">
    <filter
       inkscape:collect="always"
       style="color-interpolation-filters:sRGB"
       id="filter5431"
       x="-0.012"
       width="1.024"
       y="-0.012"
       height="1.024">
      <feGaussianBlur
         inkscape:collect="always"
         stdDeviation="0.030427085"
         id="feGaussianBlur5433" />
    </filter>
    <filter
       inkscape:collect="always"
       style="color-interpolation-filters:sRGB"
       id="filter5454"
       x="-0.011806452"
       width="1.0236129"
       y="-0.012199999"
       height="1.0244">
      <feGaussianBlur
         inkscape:collect="always"
         stdDeviation="0.040348961"
         id="feGaussianBlur5456" />
    </filter>
    <filter
       inkscape:collect="always"
       style="color-interpolation-filters:sRGB"
       id="filter5479"
       x="-0.012"
       width="1.024"
       y="-0.012"
       height="1.024">
      <feGaussianBlur
         inkscape:collect="always"
         stdDeviation="0.030427085"
         id="feGaussianBlur5481" />
    </filter>
    <filter
       inkscape:collect="always"
       style="color-interpolation-filters:sRGB"
       id="filter5498"
       x="-0.011806452"
       width="1.0236129"
       y="-0.012199999"
       height="1.0244">
      <feGaussianBlur
         inkscape:collect="always"
         stdDeviation="0.040348961"
         id="feGaussianBlur5500" />
    </filter>
  </defs>
  <sodipodi:namedview
     id="base"
     pagecolor="#ffffff"
     bordercolor="#666666"
     borderopacity="1.0"
     inkscape:pageopacity="0.0"
     inkscape:pageshadow="2"
     inkscape:zoom="11.291667"
     inkscape:cx="24"
     inkscape:cy="24"
     inkscape:document-units="mm"
     inkscape:current-layer="layer1"
     showgrid="false"
     units="px"
     inkscape:window-width="1366"
     inkscape:window-height="703"
     inkscape:window-x="-3"
     inkscape:window-y="-4"
     inkscape:window-maximized="1"
     fit-margin-top="0"
     fit-margin-left="0"
     fit-margin-right="0"
     fit-margin-bottom="0" />
  <metadata
     id="metadata5">
    <rdf:RDF>
      <cc:Work
         rdf:about="">
        <dc:format>image/svg+xml</dc:format>
        <dc:type
           rdf:resource="http://purl.org/dc/dcmitype/StillImage" />
        <dc:title></dc:title>
      </cc:Work>
    </rdf:RDF>
  </metadata>
  <g
     inkscape:label="Layer 1"
     inkscape:groupmode="layer"
     id="layer1"
     transform="translate(-4.4504802e-7,-284.29999)">
    <g
       id="g69"
       transform="matrix(0.75000004,0,0,0.75000004,0.39687513,73.853112)">
      <g
         id="g5570">
        <g
           id="g5506">
          <path
             sodipodi:nodetypes="ssscs"
             inkscape:connector-curvature="0"
             id="path5217-7-6"
             d="m 6.2244943,292.55492 c 0.5857085,1.17884 2.2630693,1.2731 3.9465967,1.26999 1.683526,-0.003 3.37322,-0.10361 3.983594,-1.26999 1.017638,-1.94464 -4.146615,-6.66744 -4.146615,-6.66744 0,0 -4.7904642,4.64091 -3.7835757,6.66744 z"
             style="opacity:0.2;fill:#000000;stroke:none;stroke-width:0.0816934px;stroke-linecap:butt;stroke-linejoin:miter;stroke-opacity:1;filter:url(#filter5498)" />
          <path
             sodipodi:nodetypes="ssscs"
             inkscape:connector-curvature="0"
             id="path5217-7"
             d="m 6.2244944,292.29034 c 0.5857085,1.17884 2.2630692,1.2731 3.9465966,1.26999 1.683526,-0.003 3.37322,-0.10361 3.983594,-1.26999 1.017638,-1.94464 -4.146615,-6.66744 -4.146615,-6.66744 0,0 -4.7904641,4.64091 -3.7835756,6.66744 z"
             style="fill:#68b723;stroke:none;stroke-width:0.0816934px;stroke-linecap:butt;stroke-linejoin:miter;stroke-opacity:1" />
          <ellipse
             ry="3.0427086"
             rx="3.0427084"
             cy="285.4906"
             cx="10.186459"
             id="path5219-3-3"
             style="opacity:0.2;fill:#000000;fill-opacity:1;stroke:none;stroke-width:0.09236769;stroke-opacity:0;filter:url(#filter5479)" />
          <ellipse
             ry="3.0427086"
             rx="3.0427084"
             cy="285.22601"
             cx="10.186459"
             id="path5219-3"
             style="opacity:1;fill:#68b723;fill-opacity:1;stroke:none;stroke-width:0.09236769;stroke-opacity:0" />
        </g>
        <path
           inkscape:connector-curvature="0"
           style="opacity:0.2;fill:#ffffff;stroke-width:0.10866775"
           d="m 10.186467,282.1833 a 3.042697,3.042697 0 0 0 -3.042697,3.0427 3.042697,3.042697 0 0 0 0.0023,0.0637 3.042697,3.042697 0 0 1 3.040361,-2.9977 3.042697,3.042697 0 0 1 3.040415,2.97901 3.042697,3.042697 0 0 0 0.0023,-0.045 3.042697,3.042697 0 0 0 -3.042697,-3.0427 z"
           id="path5512-1" />
      </g>
      <g
         id="g5578">
        <g
           id="g5462">
          <path
             sodipodi:nodetypes="ssscs"
             inkscape:connector-curvature="0"
             id="path5217-0"
             d="m 1.4619943,295.20076 c 0.5857086,1.17884 2.2630693,1.2731 3.9465967,1.26999 1.6835263,-0.003 3.3732203,-0.10361 3.9835937,-1.26999 1.0176383,-1.94464 -4.1466143,-6.66744 -4.1466143,-6.66744 0,0 -4.79046454,4.64091 -3.7835761,6.66744 z"
             style="opacity:0.2;fill:#000000;stroke:none;stroke-width:0.0816934px;stroke-linecap:butt;stroke-linejoin:miter;stroke-opacity:1;filter:url(#filter5454)" />
          <path
             sodipodi:nodetypes="ssscs"
             inkscape:connector-curvature="0"
             id="path5217"
             d="m 1.4619944,294.93617 c 0.5857085,1.17884 2.2630692,1.2731 3.9465966,1.26999 1.6835264,-0.003 3.3732203,-0.10361 3.9835936,-1.26999 1.0176384,-1.94464 -4.1466143,-6.66744 -4.1466143,-6.66744 0,0 -4.79046437,4.64091 -3.7835759,6.66744 z"
             style="fill:#3689e6;stroke:none;stroke-width:0.0816934px;stroke-linecap:butt;stroke-linejoin:miter;stroke-opacity:1" />
          <ellipse
             ry="3.0427086"
             rx="3.0427084"
             cy="288.13644"
             cx="5.4239583"
             id="path5219-5"
             style="opacity:0.2;fill:#000000;fill-opacity:1;stroke:none;stroke-width:0.09236769;stroke-opacity:0;filter:url(#filter5431)" />
          <ellipse
             ry="3.0427086"
             rx="3.0427084"
             cy="287.87186"
             cx="5.4239583"
             id="path5219"
             style="opacity:1;fill:#3689e6;fill-opacity:1;stroke:none;stroke-width:0.09236769;stroke-opacity:0" />
        </g>
        <path
           inkscape:connector-curvature="0"
           style="opacity:0.2;fill:#ffffff;stroke-width:0.10866775"
           d="m 5.423967,284.82915 a 3.0426969,3.0426969 0 0 0 -3.042697,3.0427 3.0426969,3.0426969 0 0 0 0.0023,0.0637 3.0426969,3.0426969 0 0 1 3.040361,-2.9977 3.0426969,3.0426969 0 0 1 3.040415,2.97901 3.0426969,3.0426969 0 0 0 0.0023,-0.045 3.0426969,3.0426969 0 0 0 -3.042697,-3.0427 z"
           id="path5512" />
      </g>
    </g>
  </g>
</svg>
