<?xml version="1.0" encoding="UTF-8" standalone="no"?>
<!-- Created with Inkscape (http://www.inkscape.org/) -->

<svg
   xmlns:dc="http://purl.org/dc/elements/1.1/"
   xmlns:cc="http://creativecommons.org/ns#"
   xmlns:rdf="http://www.w3.org/1999/02/22-rdf-syntax-ns#"
   xmlns:svg="http://www.w3.org/2000/svg"
   xmlns="http://www.w3.org/2000/svg"
   xmlns:sodipodi="http://sodipodi.sourceforge.net/DTD/sodipodi-0.dtd"
   xmlns:inkscape="http://www.inkscape.org/namespaces/inkscape"
   width="48"
   height="48"
   viewBox="0 0 12.7 12.7"
   version="1.1"
   id="svg8"
   inkscape:version="0.92.1 r15371"
   sodipodi:docname="tdmconfig.svg"
   inkscape:export-filename="/home/john/Github/gui-art/icons_debonaire/drafts/jb/system-users.png"
   inkscape:export-xdpi="144"
   inkscape:export-ydpi="144">
  <defs
     id="defs2">
    <filter
       inkscape:collect="always"
       style="color-interpolation-filters:sRGB"
       id="filter4559"
       x="-0.014322441"
       width="1.0286449"
       y="-0.010325654"
       height="1.0206513">
      <feGaussianBlur
         inkscape:collect="always"
         stdDeviation="0.068300627"
         id="feGaussianBlur4561" />
    </filter>
  </defs>
  <sodipodi:namedview
     id="base"
     pagecolor="#ffffff"
     bordercolor="#666666"
     borderopacity="1.0"
     inkscape:pageopacity="0.0"
     inkscape:pageshadow="2"
     inkscape:zoom="11.125"
     inkscape:cx="24"
     inkscape:cy="24"
     inkscape:document-units="mm"
     inkscape:current-layer="layer1"
     showgrid="false"
     units="px"
     inkscape:window-width="1362"
     inkscape:window-height="695"
     inkscape:window-x="0"
     inkscape:window-y="0"
     inkscape:window-maximized="1"
     fit-margin-top="0"
     fit-margin-left="0"
     fit-margin-right="0"
     fit-margin-bottom="0" />
  <metadata
     id="metadata5">
    <rdf:RDF>
      <cc:Work
         rdf:about="">
        <dc:format>image/svg+xml</dc:format>
        <dc:type
           rdf:resource="http://purl.org/dc/dcmitype/StillImage" />
        <dc:title></dc:title>
      </cc:Work>
    </rdf:RDF>
  </metadata>
  <g
     inkscape:label="Layer 1"
     inkscape:groupmode="layer"
     id="layer1"
     transform="translate(-4.4504802e-7,-284.29999)">
    <path
       inkscape:connector-curvature="0"
       style="opacity:0.2;fill:#000000;stroke:none;stroke-width:0.11399128px;stroke-linecap:butt;stroke-linejoin:miter;stroke-opacity:1;filter:url(#filter4559)"
       d="m 8.4668101,280.86023 a 4.2456576,4.2456579 0 0 0 -4.2456567,4.24567 4.2456576,4.2456579 0 0 0 1.5301092,3.26283 c -1.7390634,2.1165 -3.6243442,4.96173 -2.8128917,6.59491 0.8172706,1.64489 3.1576893,1.776 5.506807,1.77166 2.3491171,-0.004 4.7070381,-0.14415 5.5587251,-1.77166 0.805243,-1.53876 -1.162893,-4.32235 -3.018397,-6.44565 a 4.2456576,4.2456579 0 0 0 1.726961,-3.41209 4.2456576,4.2456579 0 0 0 -4.2456569,-4.24567 z"
       id="path5217-2-7"
       transform="matrix(0.75000004,0,0,0.75000004,1.1126199e-7,74.249987)" />
    <path
       inkscape:connector-curvature="0"
       style="fill:#a56de2;stroke:none;stroke-width:0.08549257px;stroke-linecap:butt;stroke-linejoin:miter;stroke-opacity:1"
       d="m 6.3500628,284.69686 a 3.1842098,3.1842101 0 0 0 -3.1842093,3.18421 3.1842098,3.1842101 0 0 0 1.1475699,2.4471 c -1.3042839,1.58736 -2.7182295,3.72126 -2.1096468,4.94613 0.6129469,1.23365 2.3682426,1.33199 4.1300622,1.32873 1.7618192,-0.003 3.5302413,-0.10811 4.1690002,-1.32873 0.603926,-1.15406 -0.8721604,-3.24173 -2.2637742,-4.83418 a 3.1842098,3.1842101 0 0 0 1.2952073,-2.55905 3.1842098,3.1842101 0 0 0 -3.1842093,-3.18421 z"
       id="path5217-2" />
    <path
       inkscape:connector-curvature="0"
       style="opacity:0.2;fill:#ffffff;stroke-width:0.11372136"
       d="m 6.3500717,284.69704 a 3.1841976,3.1841976 0 0 0 -3.1841975,3.1842 3.1841976,3.1841976 0 0 0 0.00241,0.0667 3.1841976,3.1841976 0 0 1 3.1817529,-3.13711 3.1841976,3.1841976 0 0 1 3.1818105,3.11755 3.1841976,3.1841976 0 0 0 0.0024,-0.0471 3.1841976,3.1841976 0 0 0 -3.1841983,-3.18421 z"
       id="path5512-7" />
  </g>
</svg>
