<?xml version="1.0" encoding="UTF-8" standalone="no"?>
<!-- Created with Inkscape (http://www.inkscape.org/) -->

<svg
   xmlns:dc="http://purl.org/dc/elements/1.1/"
   xmlns:cc="http://creativecommons.org/ns#"
   xmlns:rdf="http://www.w3.org/1999/02/22-rdf-syntax-ns#"
   xmlns:svg="http://www.w3.org/2000/svg"
   xmlns="http://www.w3.org/2000/svg"
   xmlns:sodipodi="http://sodipodi.sourceforge.net/DTD/sodipodi-0.dtd"
   xmlns:inkscape="http://www.inkscape.org/namespaces/inkscape"
   id="svg7384"
   style="enable-background:new"
   height="32"
   width="32"
   version="1.1"
   sodipodi:docname="configure.svg"
   inkscape:version="0.92.1 r15371">
  <sodipodi:namedview
     pagecolor="#ffffff"
     bordercolor="#666666"
     borderopacity="1"
     objecttolerance="10"
     gridtolerance="10"
     guidetolerance="10"
     inkscape:pageopacity="0"
     inkscape:pageshadow="2"
     inkscape:window-width="1366"
     inkscape:window-height="703"
     id="namedview11"
     showgrid="false"
     fit-margin-top="0"
     fit-margin-left="0"
     fit-margin-right="0"
     fit-margin-bottom="0"
     inkscape:zoom="16.9375"
     inkscape:cx="16"
     inkscape:cy="16"
     inkscape:window-x="-3"
     inkscape:window-y="-4"
     inkscape:window-maximized="1"
     inkscape:current-layer="svg7384" />
  <metadata
     id="metadata90">
    <rdf:RDF>
      <cc:Work
         rdf:about="">
        <dc:format>image/svg+xml</dc:format>
        <dc:type
           rdf:resource="http://purl.org/dc/dcmitype/StillImage" />
        <dc:title>Paper Symbolic Icon Theme</dc:title>
      </cc:Work>
    </rdf:RDF>
  </metadata>
  <title
     id="title8473">Paper Symbolic Icon Theme</title>
  <defs
     id="defs7386">
    <inkscape:perspective
       sodipodi:type="inkscape:persp3d"
       inkscape:vp_x="0 : 32 : 1"
       inkscape:vp_y="0 : 1000 : 0"
       inkscape:vp_z="64 : 32 : 1"
       inkscape:persp3d-origin="32 : 21.333333 : 1"
       id="perspective4495" />
    <filter
       id="filter7554"
       style="color-interpolation-filters:sRGB">
      <feBlend
         id="feBlend7556"
         in2="BackgroundImage"
         mode="darken" />
    </filter>
    <filter
       style="color-interpolation-filters:sRGB"
       id="filter7554-9">
      <feBlend
         mode="darken"
         in2="BackgroundImage"
         id="feBlend7556-1" />
    </filter>
    <filter
       inkscape:collect="always"
       style="color-interpolation-filters:sRGB"
       id="filter4614"
       x="-0.012001684"
       width="1.0240034"
       y="-0.011998316"
       height="1.0239966">
      <feGaussianBlur
         inkscape:collect="always"
         stdDeviation="0.24512777"
         id="feGaussianBlur4616" />
    </filter>
  </defs>
  <g
     id="g4612"
     style="opacity:0.2;fill:#000000;stroke:#000000;filter:url(#filter4614)"
     transform="scale(0.5)">
    <path
       inkscape:connector-curvature="0"
       id="rect2422-3"
       sodipodi:nodetypes="csccccccccssccsccssc"
       style="fill:#000000;stroke:#000000;stroke-width:0.97420275;stroke-miterlimit:4;stroke-dasharray:none"
       d="m 17.238212,8.4842584 c 2.713421,0.023166 5.398595,1.0753913 7.477278,3.1276286 3.132149,3.09268 3.868245,7.572791 2.336233,11.382979 0.117976,0.09237 0.305739,0.199353 0.415405,0.307478 l 6.697977,6.615241 c 1.497118,1.47669 1.497118,3.905024 0,5.383353 l -0.623106,0.615288 c -1.495452,1.476689 -3.95465,1.476689 -5.451764,0 l -6.74949,-6.615569 C 21.231078,29.194007 21.174583,29.0086 21.079871,28.890466 17.221596,30.404893 12.685381,29.676392 9.5532318,26.583549 9.1295193,26.166794 8.7390395,25.715583 8.4100389,25.251246 8.3003724,25.095374 8.1990136,24.949346 8.0993164,24.788551 6.8514423,22.19253 7.5077807,22.347091 10.227848,23.046057 c 2.751639,0 4.984853,-2.20519 4.984853,-4.922298 0,-2.717108 -2.233214,-4.922298 -4.984853,-4.922298 -1.661617,0 0.987001,-3.115322 3.010851,-3.9480112 0.09637,-0.037048 0.1645,-0.1197591 0.260874,-0.1539039 0.03489,-0.010465 0.06813,0.010126 0.103021,0 1.166455,-0.3995596 2.414329,-0.6257058 3.635618,-0.6152875 z" />
    <path
       inkscape:connector-curvature="0"
       id="path2432-5"
       style="fill:#000000;stroke:#000000;stroke-width:0.97420275;stroke-miterlimit:4;stroke-dasharray:none"
       d="m 55.438345,47.577372 c 1.429188,1.411254 1.428924,3.742792 2.55e-4,5.153537 l -3.774683,3.727314 c -1.428678,1.410747 -3.789842,1.411001 -5.21903,-2.53e-4 L 25.968077,36.238119 c -1.428675,-1.410746 -1.428675,-3.742537 0,-5.153283 l 3.77468,-3.727314 c 1.428675,-1.410746 3.790099,-1.410746 5.218774,0 z" />
  </g>
  <rect
     id="rect3465"
     style="fill:#427bc3;stroke-width:0.84744108"
     ry="0"
     height="0"
     width="4.8354983"
     y="22.084047"
     x="-41.464413"
     transform="scale(-1,1)" />
  <path
     d="m 8.619106,3.7421603 c 1.3567105,0.011582 2.699298,0.5376954 3.738639,1.5638142 1.566075,1.54634 1.934123,3.7863955 1.168117,5.6914895 0.05899,0.04618 0.152869,0.09968 0.207702,0.153739 l 3.348988,3.30762 c 0.748559,0.738346 0.748559,1.952512 0,2.691677 l -0.311553,0.307644 c -0.747726,0.738344 -1.977325,0.738344 -2.725882,0 L 10.670372,14.15036 C 10.615542,14.09704 10.587292,14.004331 10.539935,13.945264 8.610798,14.702478 6.3426905,14.338227 4.776616,12.791806 4.5647597,12.583428 4.3695197,12.357823 4.2050195,12.125654 4.1501862,12.047718 4.0995067,11.974704 4.0496582,11.894307 3.4257212,10.596296 3.7538902,10.673577 5.113924,11.02306 c 1.3758195,0 2.4924265,-1.1025955 2.4924265,-2.4611495 0,-1.358554 -1.116607,-2.461149 -2.4924265,-2.461149 -0.8308085,0 0.4935005,-1.557661 1.5054255,-1.9740055 0.048185,-0.018525 0.08225,-0.05988 0.130437,-0.076952 0.017445,-0.00523 0.034065,0.00506 0.051511,0 0.583227,-0.1997797 1.207164,-0.312853 1.8178085,-0.3076437 z"
     style="fill:#abacae;stroke:#7e8087;stroke-width:0.48710138;stroke-miterlimit:4;stroke-dasharray:none"
     sodipodi:nodetypes="csccccccccssccsccssc"
     id="rect2422"
     inkscape:connector-curvature="0" />
  <path
     d="m 27.719172,23.288717 c 0.714595,0.705627 0.714463,1.871395 1.28e-4,2.576768 l -1.887342,1.863657 c -0.714338,0.705373 -1.89492,0.7055 -2.609515,-1.27e-4 L 12.984039,17.61909 c -0.714338,-0.705373 -0.714338,-1.871268 0,-2.576641 l 1.88734,-1.863657 c 0.714337,-0.705373 1.895049,-0.705373 2.609386,0 z"
     style="fill:#cc3b02;stroke:#a62100;stroke-width:0.48710138;stroke-miterlimit:4;stroke-dasharray:none"
     id="path2432"
     inkscape:connector-curvature="0" />
</svg>
