<?xml version="1.0" encoding="UTF-8" standalone="no"?>
<!-- Created with Inkscape (http://www.inkscape.org/) -->

<svg
   xmlns:dc="http://purl.org/dc/elements/1.1/"
   xmlns:cc="http://creativecommons.org/ns#"
   xmlns:rdf="http://www.w3.org/1999/02/22-rdf-syntax-ns#"
   xmlns:svg="http://www.w3.org/2000/svg"
   xmlns="http://www.w3.org/2000/svg"
   xmlns:sodipodi="http://sodipodi.sourceforge.net/DTD/sodipodi-0.dtd"
   xmlns:inkscape="http://www.inkscape.org/namespaces/inkscape"
   width="64"
   height="64"
   viewBox="0 0 16.933333 16.933334"
   version="1.1"
   id="svg8"
   inkscape:version="0.92.1 r15371"
   sodipodi:docname="system-users.svg"
   inkscape:export-filename="/home/john/Github/gui-art/icons_debonaire/drafts/jb/system-users.png"
   inkscape:export-xdpi="144"
   inkscape:export-ydpi="144">
  <defs
     id="defs2">
    <filter
       inkscape:collect="always"
       style="color-interpolation-filters:sRGB"
       id="filter4559"
       x="-0.014322441"
       width="1.0286449"
       y="-0.010325654"
       height="1.0206513">
      <feGaussianBlur
         inkscape:collect="always"
         stdDeviation="0.068300627"
         id="feGaussianBlur4561" />
    </filter>
  </defs>
  <sodipodi:namedview
     id="base"
     pagecolor="#ffffff"
     bordercolor="#666666"
     borderopacity="1.0"
     inkscape:pageopacity="0.0"
     inkscape:pageshadow="2"
     inkscape:zoom="8.34375"
     inkscape:cx="11.325843"
     inkscape:cy="30.861423"
     inkscape:document-units="mm"
     inkscape:current-layer="layer1"
     showgrid="false"
     units="px"
     inkscape:window-width="1362"
     inkscape:window-height="695"
     inkscape:window-x="0"
     inkscape:window-y="0"
     inkscape:window-maximized="1" />
  <metadata
     id="metadata5">
    <rdf:RDF>
      <cc:Work
         rdf:about="">
        <dc:format>image/svg+xml</dc:format>
        <dc:type
           rdf:resource="http://purl.org/dc/dcmitype/StillImage" />
        <dc:title />
      </cc:Work>
    </rdf:RDF>
  </metadata>
  <g
     inkscape:label="Layer 1"
     inkscape:groupmode="layer"
     id="layer1"
     transform="translate(0,-280.06665)">
    <path
       inkscape:connector-curvature="0"
       style="fill:#000000;stroke:none;stroke-width:0.11399128px;stroke-linecap:butt;stroke-linejoin:miter;stroke-opacity:1;filter:url(#filter4559);opacity:0.2"
       d="m 8.4668101,280.86023 a 4.2456576,4.2456579 0 0 0 -4.2456567,4.24567 4.2456576,4.2456579 0 0 0 1.5301092,3.26283 c -1.7390634,2.1165 -3.6243442,4.96173 -2.8128917,6.59491 0.8172706,1.64489 3.1576893,1.776 5.506807,1.77166 2.3491171,-0.004 4.7070381,-0.14415 5.5587251,-1.77166 0.805243,-1.53876 -1.162893,-4.32235 -3.018397,-6.44565 a 4.2456576,4.2456579 0 0 0 1.726961,-3.41209 4.2456576,4.2456579 0 0 0 -4.2456569,-4.24567 z"
       id="path5217-2-7" />
    <path
       inkscape:connector-curvature="0"
       style="fill:#a56de2;stroke:none;stroke-width:0.11399008px;stroke-linecap:butt;stroke-linejoin:miter;stroke-opacity:1"
       d="m 8.4667498,280.59581 a 4.2456129,4.2456132 0 0 0 -4.2456122,4.24562 4.2456129,4.2456132 0 0 0 1.5300932,3.2628 c -1.7390452,2.11648 -3.6243059,4.96168 -2.8128623,6.59484 0.8172625,1.64487 3.1576566,1.77598 5.5067493,1.77164 2.3490922,-0.004 4.7069882,-0.14415 5.5586662,-1.77164 0.805235,-1.53875 -1.16288,-4.32231 -3.018365,-6.44558 a 4.2456129,4.2456132 0 0 0 1.726943,-3.41206 4.2456129,4.2456132 0 0 0 -4.2456122,-4.24562 z"
       id="path5217-2" />
    <path
       inkscape:connector-curvature="0"
       style="opacity:0.2;fill:#ffffff;stroke-width:0.15162848"
       d="m 8.4667617,280.59605 a 4.2455966,4.2455966 0 0 0 -4.2455965,4.2456 4.2455966,4.2455966 0 0 0 0.00321,0.0889 4.2455966,4.2455966 0 0 1 4.242337,-4.18281 4.2455966,4.2455966 0 0 1 4.2424138,4.15673 4.2455966,4.2455966 0 0 0 0.0032,-0.0628 4.2455966,4.2455966 0 0 0 -4.2455975,-4.24561 z"
       id="path5512-7" />
  </g>
</svg>
